Coordinates
version=1
nRows=4
nColumns=63
inDegrees=yes

Units are S.I. units (second, meters, Newtons, ...)
If the header above contains a line with 'inDegrees', this indicates whether rotational values are in degrees (yes) or radians (no).

endheader
time	pelvis_tilt	pelvis_list	pelvis_rotation	pelvis_tx	pelvis_ty	pelvis_tz	hip_flexion_r	hip_adduction_r	hip_rotation_r	knee_angle_r	knee_angle_r_beta	ankle_angle_r	subtalar_angle_r	mtp_angle_r	hip_flexion_l	hip_adduction_l	hip_rotation_l	knee_angle_l	knee_angle_l_beta	ankle_angle_l	subtalar_angle_l	mtp_angle_l	L5_S1_Flex_Ext	L5_S1_Lat_Bending	L5_S1_axial_rotation	L4_L5_Flex_Ext	L4_L5_Lat_Bending	L4_L5_axial_rotation	L3_L4_Flex_Ext	L3_L4_Lat_Bending	L3_L4_axial_rotation	L2_L3_Flex_Ext	L2_L3_Lat_Bending	L2_L3_axial_rotation	L1_L2_Flex_Ext	L1_L2_Lat_Bending	L1_L2_axial_rotation	L1_T12_Flex_Ext	L1_T12_Lat_Bending	L1_T12_axial_rotation	Abs_r3	Abs_r2	Abs_r1	Abs_t1	Abs_t2	neck_flexion	neck_bending	neck_rotation	arm_flex_r	arm_add_r	arm_rot_r	elbow_flex_r	pro_sup_r	wrist_flex_r	wrist_dev_r	arm_flex_l	arm_add_l	arm_rot_l	elbow_flex_l	pro_sup_l	wrist_flex_l	wrist_dev_l
      0.00000000	     -4.30666828	     -3.12853235	     91.58283790	      0.27906591	      0.71097101	      0.81882346	     -4.45412792	      0.42572578	      7.89442985	      0.21992223	      0.00383837	     16.51197159	    -14.66055792	      0.00000000	     -4.00445405	     -0.20034047	      4.83987194	      0.29634803	      0.00517225	     28.04054837	     -0.22934079	      0.00000000	      0.24821194	      0.29694352	     -0.31426759	      0.46095440	      0.39493489	     -0.33390932	      0.40778740	      0.72198849	     -0.33390932	      0.28368143	      0.72198849	     -0.27498414	      0.23048961	      0.60552724	     -0.25534242	      0.14182830	      0.45996552	     -0.23570069	      1.77295307	      3.35908454	     -1.74786206	      0.00000000	      0.00000000	     11.00446742	      5.02631419	      7.86041129	     12.52018505	    -13.60381736	     56.89703914	     53.18176561	     28.80027894	      7.38777724	     32.64925916	     15.54740206	     -8.78349031	     62.71791281	     42.22084597	     67.02053885	     19.57554538	    -10.40733061
      0.01666667	     -4.87730446	     -2.89937186	     91.79103136	      0.27992905	      0.71080882	      0.81864658	     -5.12084385	      0.10251959	      4.38242435	      0.25498500	      0.00445033	     15.04667926	    -14.22803150	      0.00000000	     -4.31326890	      0.34808648	      5.23361086	      0.31133128	      0.00543376	     27.30540549	     -0.97223318	      0.00000000	      0.24538820	      0.20845874	     -0.34770185	      0.45571042	      0.27725013	     -0.36943321	      0.40314827	      0.50684658	     -0.36943321	      0.28045417	      0.50684658	     -0.30423912	      0.22786748	      0.42508906	     -0.28250775	      0.14021481	      0.32290259	     -0.26077639	      1.75278334	      2.35812697	     -1.93381336	      0.00000000	      0.00000000	     10.25957314	      5.35772885	      7.36636652	     13.02552793	    -13.59618712	     60.10919077	     53.40981727	     18.94960851	      2.10477434	     32.88344413	     14.77163490	     -9.22385623	     62.39880451	     42.28232732	     58.70880253	     22.14834442	     -4.89170883
      0.03333333	     -5.19704795	     -2.68713659	     91.81890645	      0.28060663	      0.71093555	      0.81853148	     -5.56243567	     -0.02863966	      1.15627139	      0.28941290	      0.00505121	     13.81761187	    -13.13643072	      0.00000000	     -4.57910067	      0.66581816	      4.78326545	      0.31990096	      0.00558333	     27.02860066	     -0.61324774	      0.00000000	      0.23303185	      0.15851490	     -0.33648661	      0.43276345	      0.21082482	     -0.35751702	      0.38284803	      0.38541313	     -0.35751702	      0.26633210	      0.38541313	     -0.29442578	      0.21639338	      0.32324358	     -0.27339537	      0.13315440	      0.24553958	     -0.25236496	      1.66452320	      1.79315224	     -1.87143758	      0.00000000	      0.00000000	      9.67013975	      5.51155629	      6.98094834	     13.02231406	    -13.28605798	     60.66423531	     52.94999508	     19.16437268	      2.43558146	     32.86702230	     14.17162285	     -9.35855365	     61.74123333	     42.10302498	     57.18946685	     22.64216342	     -3.45212313
      0.05000000	     -5.46256716	     -2.66074192	     91.96009492	      0.28113995	      0.71078162	      0.81851310	     -5.68879468	     -0.13540449	     -0.96991318	      0.31232061	      0.00545102	     12.89946279	    -12.75745325	      0.00000000	     -4.60044858	      0.91884082	      5.11998667	      0.32584090	      0.00568700	     26.87535469	     -0.93102736	      0.00000000	      0.24204697	      0.11093326	     -0.38392148	      0.44950542	      0.14754124	     -0.40791657	      0.39765896	      0.26972313	     -0.40791657	      0.27663548	      0.26972313	     -0.33593130	      0.22476481	      0.22621511	     -0.31193620	      0.13830564	      0.17183562	     -0.28794111	      1.72891729	      1.25489925	     -2.13525610	      0.00000000	      0.00000000	      9.31874872	      5.88232684	      6.88558923	     13.09354950	    -12.85977457	     61.07547228	     52.56165874	     17.54647896	      2.48003884	     32.82966147	     13.21635560	     -9.59904764	     59.62234469	     42.58175109	     55.08431163	     23.59447373	      0.39047705
